<svg id="Layer_1" data-name="Layer 1" xmlns="http://www.w3.org/2000/svg" xmlns:xlink="http://www.w3.org/1999/xlink" viewBox="0 0 100 100"><defs><style>.cls-1{fill:#231f20;}.cls-2{fill:url(#linear-gradient);}</style><linearGradient id="linear-gradient" x1="16.23" y1="50" x2="83.77" y2="50" gradientUnits="userSpaceOnUse"><stop offset="0" stop-color="#fafafa"/><stop offset="0.3" stop-color="#aeaeb2"/><stop offset="0.36" stop-color="#b6b6ba"/><stop offset="0.46" stop-color="#cdcdcf"/><stop offset="0.58" stop-color="#f1f1f1"/><stop offset="0.6" stop-color="#fafafa"/><stop offset="0.67" stop-color="#e8e8e9"/><stop offset="0.81" stop-color="#c8c8cb"/><stop offset="0.92" stop-color="#b5b5b9"/><stop offset="1" stop-color="#aeaeb2"/></linearGradient></defs><rect class="cls-1" width="100" height="100" rx="19.61"/><path class="cls-2" d="M81.59,71.93h0c-.15-.19-.29-.39-.43-.58-.44-1.17-1.86-1.72-2-3.07,3.85-1.63,3.89-1.83.59-4.55-.1-.13-.2-.26-.33-.4h0c-.08-.09-.15-.19-.23-.29h0l-.28-.3a17.21,17.21,0,0,1-2.32-2.93,2.55,2.55,0,0,1,.68-2.39c1-1.28.53-1.47-.84-2.52A6,6,0,0,1,75,53.26l.78-1.11.44-.63,0,0h0c1.13-2,.44-4.13,0-6.3a68.23,68.23,0,0,1-.45-20.38c.51-4.36,2.37-8.79.56-13.21-.9-2.18-.06-2.34,1.79-2.73s4.21.36,5.55-1.83c-.73-.86-1.54-.7-2.32-.69-6.26.12-12.52.44-18.78.31-10-.21-20.11.13-29.83-3.09a11.35,11.35,0,0,0-7.35,0C23.56,4.22,22,4.3,20.32,3c-1.34-1-2.78-.45-3.69.72-1.2,1.55.62,2.16,1.37,2.66,8.51,5.71,15,13.29,20.37,21.88a55.71,55.71,0,0,1,6.54,13.92c-2.47-.17-4.53-.39-6.6-.42-1.19,0-2.53.35-2.82,1.67s.9,1.81,1.86,2.4S40,46.56,40.8,48c-.63.42-1.14.72-1.6,1.09-.89.7-2.33,1.12-2,2.64a3,3,0,0,0,2.66,2.37,2.49,2.49,0,0,1,2.19,1.35c1,2.65,3.24,3.91,5.75,4.8.75.27,1.67.42,1.18,1.57-.13.3-.24.61-.36.92h0l0,.06c-1.6,4.16-2.2,8.62-3.75,12.77C43.4,79.46,41.77,83.31,40,87.09L35.62,97.5h0A70.23,70.23,0,0,0,40.08,92h0c2.14-.18,3.47,1.56,5.27,2.21,6.62,2.41,13.22,1.66,19.85,0,2.22-.54,4.58-.67,4.68-4.38,2.32,2.51,4.43,4,6.49.65h0c2-2.33,3.2-5.14,4.65-7.79h0C83.27,79.21,84.38,75.67,81.59,71.93ZM75,51.32a4.47,4.47,0,0,1-1.28-1c-.21-.21-.42-.43-.63-.67h0c-.16-.18-.32-.36-.47-.55v0h0a35.69,35.69,0,0,1-2.29-3.24h0c-2.22-3.53-4.66-9.14-6.08-17.77h0s0-.05,0-.08l.08.32h0A86.59,86.59,0,0,0,68.5,41.15c0,.07.06.14.1.21.54,1.24,1.12,2.46,1.75,3.62l0,0s0,0,0,.05l.21.38v0l.25.45h0A22.85,22.85,0,0,0,74,50.26c.17.18.35.36.53.53s.6.45.6.53S75,51.33,75,51.32Zm-7.1-18.5c0-.3,0-.63.08-1,.07-.7.19-1.47.34-2.29s.34-1.68.56-2.53c.11-.43.23-.85.35-1.27a16,16,0,0,1,2.39-5.4,20.32,20.32,0,0,0-1.91,5.28,36.45,36.45,0,0,0-.61,3.62c-.07.61-.14,1.21-.2,1.82-.12,1.22-.21,2.44-.33,3.65h0C68,35,67.81,34.16,67.86,32.82ZM75,45.58c-.57-.84-1-3.13-1.27-4.91l0-.18c-.1-.6-.17-1.21-.23-1.82,0-.11,0-.23,0-.35,0,.12,0,.24,0,.35,0-.22,0-.36,0-.36h0c0-.17,0-.33,0-.5-.06-.9-.08-1.79-.07-2.69,0-.45,0-.89,0-1.34,0-.9.11-1.8.2-2.69.13-1.35.31-2.7.51-4.05.13-.9.27-1.8.41-2.7,0,.45,0,.89,0,1.34,0,1.79-.06,3.58-.14,5.37-.06,1.34-.13,2.69-.16,4,0,.9,0,1.79,0,2.69s0,1.79.13,2.68a28.45,28.45,0,0,0,.9,5.36C75.17,45.94,75,45.59,75,45.58Zm.54-28.69,0,.31a30,30,0,0,1-.5,3.64,4.9,4.9,0,0,1-.61,1.73,1,1,0,0,1-.59.45.92.92,0,0,1-.88-.29,1.56,1.56,0,0,1-.33-1,22.83,22.83,0,0,1,.1-2.49,17.64,17.64,0,0,1,.45-2.58s.87-3.35,1.9-4.1c.16-.09.36-.12.48.3a6.42,6.42,0,0,1,.14,1.64C75.63,15.27,75.57,16.08,75.5,16.89ZM29.57,4.23a7.06,7.06,0,0,1,2.33.44c8.08,3,16.54,2.88,24.93,3.17C60.27,8,63.71,8,67.15,8c3.19,0,6.39,0,9.58,0l3.48,0c-8.56.82-17.11,1.52-25.63,1.49a99.58,99.58,0,0,1-29.21-4A8.57,8.57,0,0,1,29.57,4.23Zm14.6,31.05a85,85,0,0,0-4.44-8,77.69,77.69,0,0,0-5.26-7.41c-1.21-1.51-2.49-3-3.82-4.39A75.69,75.69,0,0,0,19.37,5.62a1.47,1.47,0,0,1-.5-.58c-.29-.72.72-.84,1.21-.66a8.18,8.18,0,0,1,2,1.45c.68.55,1.35,1.1,2,1.66C25.58,8.74,27,10.05,28.4,11.4c6.67,1.08,13.61,1.06,20.35,1,2.12,0,4.25-.08,6.37-.17L59.37,12,60.9,12l2.64-.11L65,11.8l-.71.29-.64.27-1.1.47c-.68.29-1.25.52-1.83.72-.37.12-.72.25-1.06.39a5.83,5.83,0,0,0-3.28,2.68,5,5,0,0,0-.22.58A5.47,5.47,0,0,0,56,18.25a6.52,6.52,0,0,0,0,1.23,1.77,1.77,0,0,1-.06.82.9.9,0,0,1-.4.49A1.69,1.69,0,0,1,54,20.68l-.54-.28c-.54-.28-1.07-.59-1.58-.91a7.33,7.33,0,0,0-2.53-1.14,3.36,3.36,0,0,0-2.73.89,8.5,8.5,0,0,0-1.83,2.09A9.18,9.18,0,0,0,43.67,24c-.51,2.08,0,3.91.32,6,0,0,.34,2.54.52,3.86a53.77,53.77,0,0,1,3.94,10.08,16.36,16.36,0,0,1,3.39-.55l.47,0h.47l.15,0h0l.76-.06c1.3-.09,2.6-.21,3.89-.41q1.29-.2,2.55-.48a6,6,0,0,1,2.91,0,4.45,4.45,0,0,1,1.5.77,6.32,6.32,0,0,1,1.69,2.18l.08.14c.66,1.32,1.37,2.61,2.11,3.88.3.53.64,1.05,1,1.57.47.78.94,1.57,1.43,2.34s.86,1.31,1.29,2l1.22,1.86,2.32,3.42.19.29A18.4,18.4,0,0,1,71.27,56c-.28-.4-.55-.8-.81-1.21-.74-1.14-1.44-2.3-2.16-3.44-.85-1.34-1.78-2.66-2.53-4.09-.26-.48-.49-1-.7-1.48a4.09,4.09,0,0,0-1.81-2.16,4,4,0,0,0-2.15-.45,5.17,5.17,0,0,0-.85.1c-1.12.21-2.24.4-3.36.58s-2.24.33-3.37.45l-1.37.11h-.08l-4.84,0H47a7.33,7.33,0,0,1,.84-.36,5.55,5.55,0,0,0-.19-.86c-.12-.35-.29-.69-.43-1-.31-.77-.62-1.54-1-2.31C45.6,38.35,44.9,36.81,44.17,35.28Zm16.53.47h0q.07.63.12,1.26c0-.09-.08-.18-.12-.27-.14-.31-.28-.62-.4-.94a12.6,12.6,0,0,1-.54-8.73s0,0,0,0h0C59.64,30,60.37,32.84,60.7,35.75Zm0-7.4c-.11-.17-.2-.33-.29-.49a15.33,15.33,0,0,1-1.07-3.21c-.58-3-.31-4.35-.08-4.9.06-.12.23-.33.57-.1a3.9,3.9,0,0,1,.86,1A13.12,13.12,0,0,1,61.52,22a17.77,17.77,0,0,1,1.33,3.19,15.7,15.7,0,0,1,.44,1.92A3.46,3.46,0,0,1,63.2,29c-.15.36-.51.83-1,.82a.8.8,0,0,1-.45-.18A4.19,4.19,0,0,1,60.68,28.35ZM38.81,45.15a12,12,0,0,1-1.16-.64c-.15-.09-.29-.2-.44-.3a.57.57,0,0,1-.22-.43c0-.21.17-.3.34-.37A6.46,6.46,0,0,1,39.87,43a21.17,21.17,0,0,1,2.63.3l1.24.17,1,.13A3.25,3.25,0,0,1,46,44c.15.09.29.17.43.27a1.4,1.4,0,0,1,.52.61c.18.43.3,1.06-.14,1.37a1.31,1.31,0,0,1-.71.19,20.56,20.56,0,0,1-3.69-.2c-.4-.07-.8-.15-1.2-.25A12,12,0,0,1,38.81,45.15Zm2.56,8.11-.08,0A8,8,0,0,1,39,52.41a2.47,2.47,0,0,1-.49-.36c-.24-.27-.54-.73-.27-1.07a1.32,1.32,0,0,1,.29-.24,5.23,5.23,0,0,1,2.32-.67,14.33,14.33,0,0,1,2.7,0,14,14,0,0,1,2.13.38,16.18,16.18,0,0,1,2.05.63,1.14,1.14,0,0,1,.62.52,1,1,0,0,1,.08.64,2.23,2.23,0,0,1-2.18,1.92,10.79,10.79,0,0,1-2.46-.39C43,53.61,42.18,53.45,41.37,53.26Zm6.92,5.82a8.94,8.94,0,0,1-1.42-.52l-.17-.07a7.89,7.89,0,0,1-1.42-1,8.06,8.06,0,0,1-1.43-1.57,12,12,0,0,0,1.28.67c.44.2.88.37,1.32.52a16.67,16.67,0,0,0,2.69.63A33.17,33.17,0,0,0,54.7,58a9.31,9.31,0,0,1,2.09.15,7,7,0,0,1,1.78.6,8.2,8.2,0,0,1,3.89,4.95A7.37,7.37,0,0,0,58.25,60a8.28,8.28,0,0,0-1.3-.34,12.21,12.21,0,0,0-1.37-.18c-.47,0-.95-.05-1.43-.05s-1,0-1.48,0-.85,0-1.27,0A13.18,13.18,0,0,1,50,59.41,11.88,11.88,0,0,1,48.29,59.08ZM62.66,75.49c1-1.06,2-4.51,2-4.35,1.49,5.59-1.9,7.54-1.9,7.54C61.32,77.35,62.66,75.49,62.66,75.49Zm-22.17,14c1.12-3.52,3.17-6.64,4.38-10.13A148.53,148.53,0,0,0,49.42,63c.51,2.11.11,5.52-.86,9.31A70.76,70.76,0,0,1,40.49,89.5Zm25.27,3.28c-.35.11-.7.2-1.05.3l-.34.09c-5.64,1.51-10.79,2.14-15.93.72a20.47,20.47,0,0,1-2.21-.74c1.31.1,2.61.26,3.92.4.74.11,1.54.18,2.37.22h0l.86,0h.78c.39,0,.79,0,1.19,0h.43c.39,0,.78-.08,1.17-.13.15,0,.31,0,.46,0a16.39,16.39,0,0,0,1.63-.35,6.27,6.27,0,0,0,1.6-.63c.49-.16,1-.33,1.47-.53,0,0-.26-.4-.7-1.09,0,0,0-.06,0-.09a5,5,0,0,0-.84-1.48c-.23-.31-.44-.63-.65-1-.3-.55-.59-1.12-.86-1.7-.17-.4-.33-.8-.47-1.24s-.34-1.08-.49-1.67c.45.67.88,1.34,1.31,2l.43.65c.29.42.59.84.9,1.24a12.17,12.17,0,0,0,6.06,4.51c.1,0,.18.09.28.14ZM80.43,82.17s-3.55,6.2-4.7,7.82a2.36,2.36,0,0,1-.31.38s0,0,0,0c-1.33,1.48-2.24.68-2.24.68h0a1.44,1.44,0,0,1-.24-1.1h0a2,2,0,0,1,.18-.63,3.71,3.71,0,0,1,.47-.72c.18-.24.37-.46.54-.69.42-.55.85-1.08,1.27-1.62,1.27-1.62,2.56-3.23,3.79-4.88.37-.49.69-1,1-1.39a11.36,11.36,0,0,0,.67-1.28c.87-2,.54-3.73-1.11-5.73-.33-.39-.71-.81-1.14-1.23s-1-1-1.42-1.45A50.35,50.35,0,0,1,71,62.45c-.71-1.13-1.37-2.3-2-3.5a37.15,37.15,0,0,0-2.58-4.55,7,7,0,0,0-3.56-2.83,15,15,0,0,0-5.93-.37c-1,.08-2.2.21-3.5.38-.44.06-.86.1-1.29.13a8.94,8.94,0,0,1-3.59-.37l.61-.1,1.06-.17.65-.1,1.06-.16.69-.09,1-.14.85-.09.86-.1.87-.08.85-.07.78-.05.93,0,1.22,0h.5c.57,0,1.15,0,1.72,0a5.73,5.73,0,0,1,1.94.41A5.49,5.49,0,0,1,65,51a6.52,6.52,0,0,1,1.43,1.2A10.12,10.12,0,0,1,68,54.62c.39.81.8,1.61,1.21,2.4.84,1.59,1.72,3.13,2.67,4.63a44,44,0,0,0,8.64,10.11,5.62,5.62,0,0,1,.53.65l-.09.07.09-.07C82.05,73.77,83.73,77.27,80.43,82.17Z"/></svg>